<svg width="20" height="20" viewBox="0 0 20 20" fill="none" xmlns="http://www.w3.org/2000/svg">
<path d="M19.7879 10.225C19.7879 9.56666 19.7295 8.94166 19.6295 8.33333H10.2129V12.0917H15.6045C15.3629 13.325 14.6546 14.3667 13.6046 15.075V17.575H16.8212C18.7045 15.8333 19.7879 13.2667 19.7879 10.225Z" fill="#4285F4"/>
<path d="M10.2131 19.9999C12.9131 19.9999 15.1714 19.0999 16.8214 17.5749L13.6047 15.0749C12.7047 15.6749 11.5631 16.0416 10.2131 16.0416C7.60474 16.0416 5.39641 14.2832 4.60475 11.9082H1.28809V14.4832C2.92975 17.7499 6.30475 19.9999 10.2131 19.9999Z" fill="#34A853"/>
<path d="M4.60455 11.9083C4.39622 11.3083 4.28788 10.6666 4.28788 9.99997C4.28788 9.33331 4.40455 8.69164 4.60455 8.09164V5.51665H1.28789C0.604556 6.86665 0.212891 8.38331 0.212891 9.99997C0.212891 11.6166 0.604556 13.1333 1.28789 14.4833L4.60455 11.9083Z" fill="#FBBC05"/>
<path d="M10.2131 3.95833C11.6881 3.95833 13.0047 4.46666 14.0464 5.45833L16.8964 2.60833C15.1714 0.991666 12.9131 0 10.2131 0C6.30475 0 2.92975 2.25 1.28809 5.51666L4.60475 8.09166C5.39641 5.71666 7.60474 3.95833 10.2131 3.95833Z" fill="#EA4335"/>
</svg>
